<svg width="1080" height="1080" viewBox="0 0 1080 1080" fill="none" xmlns="http://www.w3.org/2000/svg">
  <rect width="1080" height="1080" rx="90" fill="#E9FFF1"/>
  <circle cx="540" cy="540" r="350" fill="#FFF7D1"/>
  <path d="M332 430L432 320L458 478L332 430Z" fill="#C57A45"/>
  <path d="M748 430L648 320L622 478L748 430Z" fill="#C57A45"/>
  <ellipse cx="540" cy="570" rx="250" ry="240" fill="#D68C57"/>
  <ellipse cx="450" cy="540" rx="34" ry="42" fill="#2D2D2D"/>
  <ellipse cx="630" cy="540" rx="34" ry="42" fill="#2D2D2D"/>
  <ellipse cx="540" cy="650" rx="120" ry="92" fill="#FFF0D7"/>
  <path d="M540 590C575 590 604 617 604 650C604 683 575 710 540 710C505 710 476 683 476 650C476 617 505 590 540 590Z" fill="#FFF4E1"/>
  <path d="M540 612L584 664H496L540 612Z" fill="#F27987"/>
  <path d="M524 688C532 698 546 704 560 704C574 704 588 698 596 688" stroke="#7D4A2A" stroke-width="18" stroke-linecap="round"/>
  <path d="M420 652H296" stroke="#7D4A2A" stroke-width="16" stroke-linecap="round"/>
  <path d="M420 688H278" stroke="#7D4A2A" stroke-width="16" stroke-linecap="round"/>
  <path d="M660 652H784" stroke="#7D4A2A" stroke-width="16" stroke-linecap="round"/>
  <path d="M660 688H802" stroke="#7D4A2A" stroke-width="16" stroke-linecap="round"/>
  <text x="540" y="178" text-anchor="middle" fill="#245648" font-family="Arial, sans-serif" font-size="72" font-weight="700">Con vat nao day?</text>
</svg>
