<svg width="800" height="800" viewBox="0 0 800 800" fill="none" xmlns="http://www.w3.org/2000/svg">
  <rect width="800" height="800" rx="64" fill="url(#bg)"/>
  <ellipse cx="400" cy="700" rx="210" ry="34" fill="#B8E0A7" opacity="0.45"/>
  <ellipse cx="336" cy="236" rx="42" ry="112" fill="#FFFFFF"/>
  <ellipse cx="464" cy="236" rx="42" ry="112" fill="#FFFFFF"/>
  <ellipse cx="336" cy="236" rx="18" ry="82" fill="#FFD2E1"/>
  <ellipse cx="464" cy="236" rx="18" ry="82" fill="#FFD2E1"/>
  <ellipse cx="400" cy="360" rx="154" ry="150" fill="#FFFFFF"/>
  <ellipse cx="330" cy="344" rx="26" ry="32" fill="#57666F"/>
  <ellipse cx="470" cy="344" rx="26" ry="32" fill="#57666F"/>
  <ellipse cx="330" cy="348" rx="10" ry="12" fill="#111111"/>
  <ellipse cx="470" cy="348" rx="10" ry="12" fill="#111111"/>
  <ellipse cx="400" cy="390" rx="22" ry="18" fill="#FFB5C8"/>
  <path d="M380 408C392 424 408 424 420 408" stroke="#6B7D87" stroke-width="8" stroke-linecap="round"/>
  <path d="M362 394L294 380" stroke="#DCE7FF" stroke-width="6" stroke-linecap="round"/>
  <path d="M438 394L506 380" stroke="#DCE7FF" stroke-width="6" stroke-linecap="round"/>
  <ellipse cx="416" cy="600" rx="166" ry="168" fill="#FFFFFF"/>
  <ellipse cx="446" cy="620" rx="98" ry="110" fill="#F7FBFF"/>
  <ellipse cx="318" cy="612" rx="58" ry="88" fill="#FFFFFF"/>
  <ellipse cx="300" cy="652" rx="50" ry="40" fill="#FFD6E2"/>
  <defs>
    <linearGradient id="bg" x1="400" y1="0" x2="400" y2="800" gradientUnits="userSpaceOnUse">
      <stop stop-color="#F5FFE7"/>
      <stop offset="1" stop-color="#CFEFBC"/>
    </linearGradient>
  </defs>
</svg>
