<svg width="800" height="800" viewBox="0 0 800 800" fill="none" xmlns="http://www.w3.org/2000/svg">
  <rect width="800" height="800" rx="64" fill="url(#bg)"/>
  <circle cx="170" cy="158" r="18" fill="#D9F8FF" opacity="0.7"/>
  <circle cx="628" cy="220" r="14" fill="#D9F8FF" opacity="0.6"/>
  <circle cx="566" cy="128" r="10" fill="#D9F8FF" opacity="0.55"/>
  <ellipse cx="416" cy="410" rx="188" ry="122" fill="#FF8B52"/>
  <path d="M250 408C182 350 150 304 132 244C220 270 272 298 328 350L250 408Z" fill="#FFA765"/>
  <path d="M248 414C182 470 150 518 132 580C218 548 272 520 328 468L248 414Z" fill="#FFA765"/>
  <path d="M444 298L494 212L540 312L444 298Z" fill="#FFD77F"/>
  <path d="M450 524L496 604L546 508L450 524Z" fill="#FFD77F"/>
  <ellipse cx="416" cy="412" rx="104" ry="76" fill="#FFF6EE"/>
  <circle cx="520" cy="386" r="34" fill="#FFFFFF"/>
  <circle cx="522" cy="388" r="16" fill="#202020"/>
  <path d="M580 424C612 430 632 448 644 476" stroke="#F5FAFF" stroke-width="10" stroke-linecap="round"/>
  <path d="M332 350C386 364 424 390 444 434" stroke="#FFCC84" stroke-width="16" stroke-linecap="round"/>
  <path d="M314 446C372 454 416 474 450 510" stroke="#FFCC84" stroke-width="16" stroke-linecap="round"/>
  <defs>
    <linearGradient id="bg" x1="400" y1="0" x2="400" y2="800" gradientUnits="userSpaceOnUse">
      <stop stop-color="#D5F9FF"/>
      <stop offset="1" stop-color="#7BC8E9"/>
    </linearGradient>
  </defs>
</svg>
